<svg xmlns="http://www.w3.org/2000/svg" xmlns:xlink="http://www.w3.org/1999/xlink" width="816" zoomAndPan="magnify" viewBox="0 0 612 791.999994" height="1056" preserveAspectRatio="xMidYMid meet" version="1.0"><defs><clipPath id="335ab72e65"><path d="M 31.683594 103.148438 L 213.976562 103.148438 L 213.976562 135.128906 L 31.683594 135.128906 Z M 31.683594 103.148438 " clip-rule="nonzero"/></clipPath><clipPath id="48950f2aa8"><path d="M 0.683594 0.148438 L 182.976562 0.148438 L 182.976562 32.128906 L 0.683594 32.128906 Z M 0.683594 0.148438 " clip-rule="nonzero"/></clipPath><clipPath id="e2fa6a4f5d"><rect x="0" width="183" y="0" height="33"/></clipPath><clipPath id="a1202e6037"><path d="M 87 146 L 164 146 L 164 230 L 87 230 Z M 87 146 " clip-rule="nonzero"/></clipPath><clipPath id="06abd40b2b"><path d="M 161.960938 231.671875 L 87.554688 230.015625 L 89.417969 146.308594 L 163.824219 147.964844 Z M 161.960938 231.671875 " clip-rule="nonzero"/></clipPath><clipPath id="d391157284"><path d="M 162.523438 231.683594 L 86.789062 230 L 88.652344 146.292969 L 164.386719 147.980469 Z M 162.523438 231.683594 " clip-rule="nonzero"/></clipPath><clipPath id="d9b88705e6"><path d="M 202.449219 232.574219 L 49.652344 229.171875 L 51.691406 137.492188 L 204.488281 140.894531 Z M 202.449219 232.574219 " clip-rule="nonzero"/></clipPath><clipPath id="2f4088c5c4"><path d="M 37.617188 104.011719 L 207.730469 104.011719 L 207.730469 200 L 37.617188 200 Z M 37.617188 104.011719 " clip-rule="nonzero"/></clipPath><clipPath id="928ae54ff5"><path d="M 34.738281 165.769531 L 211.496094 165.769531 L 211.496094 226 L 34.738281 226 Z M 34.738281 165.769531 " clip-rule="nonzero"/></clipPath><clipPath id="d41503647f"><path d="M 34.15625 127.976562 L 211.5 127.976562 L 211.5 151.191406 L 34.15625 151.191406 Z M 34.15625 127.976562 " clip-rule="nonzero"/></clipPath><clipPath id="c0adfd580e"><path d="M 0.15625 0.976562 L 177.5 0.976562 L 177.5 24.191406 L 0.15625 24.191406 Z M 0.15625 0.976562 " clip-rule="nonzero"/></clipPath><clipPath id="a39d74b344"><rect x="0" width="178" y="0" height="25"/></clipPath><clipPath id="7c11ddf4ac"><path d="M 163.828125 129.683594 L 211.5 129.683594 L 211.5 155.066406 L 163.828125 155.066406 Z M 163.828125 129.683594 " clip-rule="nonzero"/></clipPath><clipPath id="a8605d4e6c"><path d="M 0.828125 0.683594 L 48.5 0.683594 L 48.5 26.066406 L 0.828125 26.066406 Z M 0.828125 0.683594 " clip-rule="nonzero"/></clipPath><clipPath id="0e5ca8f2c8"><rect x="0" width="49" y="0" height="27"/></clipPath><clipPath id="f15111ef7e"><path d="M 1 224 L 18 224 L 18 241.273438 L 1 241.273438 Z M 1 224 " clip-rule="nonzero"/></clipPath><clipPath id="2f4ee844b6"><path d="M 228 224 L 246 224 L 246 241.273438 L 228 241.273438 Z M 228 224 " clip-rule="nonzero"/></clipPath><clipPath id="306cc52bc2"><path d="M 13 237 L 233 237 L 233 241.273438 L 13 241.273438 Z M 13 237 " clip-rule="nonzero"/></clipPath><clipPath id="a40c7e3a1a"><path d="M 112 0.726562 L 134 0.726562 L 134 79 L 112 79 Z M 112 0.726562 " clip-rule="nonzero"/></clipPath><clipPath id="73576b7812"><rect x="0" width="265" y="0" height="242"/></clipPath></defs><rect x="-61.2" width="734.4" fill="#ffffff" y="-79.199999" height="950.399992" fill-opacity="1"/><rect x="-61.2" width="734.4" fill="#ffffff" y="-79.199999" height="950.399992" fill-opacity="1"/><g transform="matrix(1, 0, 0, 1, 174, 275)"><g clip-path="url(#73576b7812)"><g clip-path="url(#335ab72e65)"><g transform="matrix(1, 0, 0, 1, 31, 103)"><g clip-path="url(#e2fa6a4f5d)"><g clip-path="url(#48950f2aa8)"><path fill="#ffe7cc" d="M 0.683594 0.148438 L 182.953125 0.148438 L 182.953125 32.128906 L 0.683594 32.128906 Z M 0.683594 0.148438 " fill-opacity="1" fill-rule="nonzero"/></g></g></g></g><g clip-path="url(#a1202e6037)"><g clip-path="url(#06abd40b2b)"><g clip-path="url(#d391157284)"><g clip-path="url(#d9b88705e6)"><path fill="#000000" d="M 53.394531 139.582031 C 53.40625 139.101562 53.390625 139.046875 53.285156 139.152344 C 52.949219 139.480469 51.890625 146.414062 51.527344 150.644531 C 51.347656 152.722656 51.28125 159.132812 51.414062 161.273438 C 51.554688 163.515625 51.761719 165.574219 52.046875 167.664062 C 53.980469 181.660156 59.476562 194.15625 68.339844 204.722656 C 69.660156 206.296875 72.710938 209.503906 74.171875 210.847656 C 84.0625 219.96875 95.980469 225.9375 109.324219 228.457031 C 121.585938 230.769531 134.117188 229.964844 146.613281 226.066406 C 157.492188 222.675781 167.550781 217.074219 176.371094 209.507812 C 177.976562 208.128906 181.367188 204.847656 182.859375 203.222656 C 192.054688 193.238281 198.34375 182.015625 201.742188 169.539062 C 202.746094 165.855469 203.410156 162.375 203.886719 158.335938 C 204.152344 156.074219 204.308594 149.101562 204.140625 147.042969 C 203.921875 144.433594 203.507812 141.578125 203.273438 141.113281 C 203.152344 140.878906 202.789062 140.886719 202.683594 141.128906 C 202.640625 141.234375 202.523438 143.128906 202.421875 145.335938 C 202.230469 149.628906 202.054688 151.796875 201.648438 154.863281 C 199.691406 169.535156 194.019531 183.148438 185.09375 194.585938 C 172.332031 210.945312 153.847656 221.703125 133.949219 224.34375 C 129.769531 224.898438 126.886719 225.042969 122.074219 224.933594 C 118.273438 224.847656 117.035156 224.765625 114.304688 224.410156 C 97.789062 222.265625 82.753906 214.609375 71.675781 202.707031 C 64.679688 195.183594 59.507812 186.210938 56.414062 176.214844 C 55.160156 172.171875 54.167969 167.253906 53.765625 163.121094 C 53.703125 162.484375 53.5625 161.058594 53.449219 159.949219 C 53.339844 158.839844 53.21875 157.277344 53.1875 156.476562 C 53.097656 154.140625 53.019531 152.707031 52.917969 151.378906 C 52.785156 149.640625 52.875 146.476562 53.148438 143.039062 C 53.277344 141.445312 53.386719 139.886719 53.394531 139.582031 Z M 53.394531 139.582031 " fill-opacity="1" fill-rule="nonzero"/></g></g></g></g><g clip-path="url(#2f4088c5c4)"><path fill="#ffe7cc" d="M 4.242188 78.414062 L 241.386719 78.414062 C 240.355469 120.707031 224.054688 154.589844 189.230469 177.710938 C 148.429688 204.792969 105.257812 206.210938 62.953125 181.675781 C 24.316406 159.265625 5.910156 123.953125 4.238281 78.421875 Z M 4.242188 78.414062 " fill-opacity="1" fill-rule="nonzero"/></g><g clip-path="url(#928ae54ff5)"><path fill="#462b0d" d="M 34.15625 135.222656 L 211.496094 135.222656 C 210.726562 166.847656 198.535156 192.183594 172.492188 209.476562 C 141.984375 229.726562 109.699219 230.789062 78.058594 212.441406 C 49.167969 195.683594 35.40625 169.273438 34.15625 135.226562 Z M 34.15625 135.222656 " fill-opacity="1" fill-rule="nonzero"/></g><g clip-path="url(#d41503647f)"><g transform="matrix(1, 0, 0, 1, 34, 127)"><g clip-path="url(#a39d74b344)"><g clip-path="url(#c0adfd580e)"><path fill="#ffe7cc" d="M 0.15625 0.976562 L 177.460938 0.976562 L 177.460938 24.191406 L 0.15625 24.191406 Z M 0.15625 0.976562 " fill-opacity="1" fill-rule="nonzero"/></g></g></g></g><g clip-path="url(#7c11ddf4ac)"><g transform="matrix(1, 0, 0, 1, 163, 129)"><g clip-path="url(#0e5ca8f2c8)"><g clip-path="url(#a8605d4e6c)"><path fill="#ffe7cc" d="M 0.828125 0.683594 L 48.519531 0.683594 L 48.519531 26.066406 L 0.828125 26.066406 Z M 0.828125 0.683594 " fill-opacity="1" fill-rule="nonzero"/></g></g></g></g><path fill="#000000" d="M 243.125 229.054688 L 3.171875 229.054688 C 2.046875 229.054688 1.136719 228.144531 1.136719 227.019531 C 1.136719 225.894531 2.046875 224.984375 3.171875 224.984375 L 243.125 224.984375 C 244.246094 224.984375 245.15625 225.894531 245.15625 227.019531 C 245.15625 228.144531 244.246094 229.054688 243.125 229.054688 Z M 243.125 229.054688 " fill-opacity="1" fill-rule="nonzero"/><path fill="#000000" d="M 88.578125 220.910156 C 88.300781 220.910156 88.027344 220.855469 87.761719 220.738281 C 22.105469 191.976562 29.53125 101.492188 29.613281 100.578125 C 29.71875 99.457031 30.742188 98.667969 31.820312 98.734375 C 32.941406 98.835938 33.765625 99.828125 33.664062 100.945312 C 33.585938 101.828125 26.4375 189.425781 89.390625 217.007812 C 90.417969 217.457031 90.886719 218.660156 90.441406 219.691406 C 90.105469 220.453125 89.359375 220.910156 88.578125 220.910156 Z M 88.578125 220.910156 " fill-opacity="1" fill-rule="nonzero"/><path fill="#000000" d="M 92.652344 211.582031 C 92.378906 211.582031 92.105469 211.527344 91.835938 211.414062 C 76.023438 204.484375 39.265625 180.625 39.5 108.902344 C 39.503906 107.777344 40.414062 106.871094 41.53125 106.871094 C 41.535156 106.871094 41.535156 106.871094 41.539062 106.871094 C 42.660156 106.875 43.570312 107.792969 43.566406 108.917969 C 43.339844 178.226562 78.390625 201.074219 93.464844 207.683594 C 94.492188 208.132812 94.960938 209.332031 94.515625 210.363281 C 94.179688 211.125 93.433594 211.582031 92.652344 211.582031 Z M 92.652344 211.582031 " fill-opacity="1" fill-rule="nonzero"/><path fill="#000000" d="M 157.71875 220.910156 C 156.933594 220.910156 156.1875 220.453125 155.855469 219.691406 C 155.40625 218.660156 155.875 217.457031 156.902344 217.007812 C 219.859375 189.425781 212.710938 101.828125 212.628906 100.945312 C 212.53125 99.828125 213.351562 98.835938 214.472656 98.734375 C 215.492188 98.664062 216.578125 99.457031 216.679688 100.578125 C 216.765625 101.492188 224.1875 191.976562 158.53125 220.738281 C 158.265625 220.855469 157.992188 220.910156 157.71875 220.910156 Z M 157.71875 220.910156 " fill-opacity="1" fill-rule="nonzero"/><path fill="#000000" d="M 214.65625 102.800781 L 31.640625 102.800781 C 30.515625 102.800781 29.605469 101.886719 29.605469 100.761719 C 29.605469 99.636719 30.515625 98.726562 31.640625 98.726562 L 214.65625 98.726562 C 215.777344 98.726562 216.6875 99.636719 216.6875 100.761719 C 216.6875 101.886719 215.777344 102.800781 214.65625 102.800781 Z M 214.65625 102.800781 " fill-opacity="1" fill-rule="nonzero"/><path fill="#000000" d="M 198.386719 196.472656 C 197.550781 196.472656 196.769531 195.957031 196.472656 195.121094 C 196.09375 194.0625 196.644531 192.898438 197.703125 192.519531 C 231.886719 180.289062 253.796875 154.53125 257.054688 136.5 C 257.875 131.984375 257.886719 125.796875 253.316406 121.929688 C 247.347656 116.886719 235.3125 117.28125 219.414062 123.039062 C 218.371094 123.425781 217.191406 122.882812 216.8125 121.820312 C 216.425781 120.761719 216.972656 119.597656 218.03125 119.214844 C 240.234375 111.15625 250.898438 114.558594 255.9375 118.820312 C 260.664062 122.816406 262.480469 129.355469 261.058594 137.226562 C 257.59375 156.378906 234.691406 183.613281 199.070312 196.355469 C 198.84375 196.433594 198.613281 196.472656 198.386719 196.472656 Z M 198.386719 196.472656 " fill-opacity="1" fill-rule="nonzero"/><path fill="#000000" d="M 202.453125 186.105469 C 201.671875 186.105469 200.925781 185.648438 200.589844 184.882812 C 200.140625 183.851562 200.609375 182.652344 201.640625 182.203125 C 229.0625 170.230469 246.535156 148.972656 249.054688 135.046875 C 249.40625 133.082031 249.753906 129.578125 248.066406 128.152344 C 245.191406 125.722656 232.714844 126.367188 219.414062 131.1875 C 218.371094 131.574219 217.195312 131.027344 216.8125 129.964844 C 216.425781 128.90625 216.976562 127.742188 218.03125 127.359375 C 230.046875 123.007812 245.570312 120.710938 250.691406 125.042969 C 253.132812 127.109375 253.949219 130.820312 253.058594 135.773438 C 250.28125 151.109375 232.289062 173.265625 203.269531 185.933594 C 203 186.050781 202.726562 186.105469 202.453125 186.105469 Z M 202.453125 186.105469 " fill-opacity="1" fill-rule="nonzero"/><g clip-path="url(#f15111ef7e)"><path fill="#000000" d="M 15.371094 241.273438 C 7.523438 241.273438 1.136719 234.878906 1.136719 227.019531 C 1.136719 225.894531 2.046875 224.984375 3.171875 224.984375 C 4.292969 224.984375 5.203125 225.894531 5.203125 227.019531 C 5.203125 232.636719 9.765625 237.203125 15.371094 237.203125 C 16.496094 237.203125 17.40625 238.113281 17.40625 239.238281 C 17.40625 240.363281 16.496094 241.273438 15.371094 241.273438 Z M 15.371094 241.273438 " fill-opacity="1" fill-rule="nonzero"/></g><g clip-path="url(#2f4ee844b6)"><path fill="#000000" d="M 230.921875 241.273438 C 229.796875 241.273438 228.890625 240.363281 228.890625 239.238281 C 228.890625 238.113281 229.796875 237.203125 230.921875 237.203125 C 236.53125 237.203125 241.089844 232.636719 241.089844 227.019531 C 241.089844 225.894531 242 224.984375 243.125 224.984375 C 244.246094 224.984375 245.15625 225.894531 245.15625 227.019531 C 245.15625 234.878906 238.769531 241.273438 230.921875 241.273438 Z M 230.921875 241.273438 " fill-opacity="1" fill-rule="nonzero"/></g><g clip-path="url(#306cc52bc2)"><path fill="#000000" d="M 230.921875 241.273438 L 15.371094 241.273438 C 14.246094 241.273438 13.339844 240.363281 13.339844 239.238281 C 13.339844 238.113281 14.246094 237.203125 15.371094 237.203125 L 230.921875 237.203125 C 232.046875 237.203125 232.957031 238.113281 232.957031 239.238281 C 232.957031 240.363281 232.046875 241.273438 230.921875 241.273438 Z M 230.921875 241.273438 " fill-opacity="1" fill-rule="nonzero"/></g><g clip-path="url(#a40c7e3a1a)"><path fill="#000000" d="M 123.148438 78.363281 C 122.589844 78.363281 122.035156 78.132812 121.632812 77.683594 C 120.882812 76.84375 120.957031 75.558594 121.792969 74.808594 C 121.859375 74.742188 128.726562 68.476562 129.21875 59.28125 C 129.546875 53.132812 126.996094 46.996094 121.632812 41.035156 C 115.507812 34.21875 112.609375 27.070312 113.015625 19.792969 C 113.621094 8.886719 121.460938 1.789062 121.796875 1.492188 C 122.625 0.75 123.914062 0.824219 124.660156 1.660156 C 125.410156 2.5 125.335938 3.785156 124.5 4.535156 C 124.433594 4.597656 117.566406 10.867188 117.074219 20.0625 C 116.742188 26.207031 119.296875 32.34375 124.660156 38.308594 C 130.785156 45.125 133.683594 52.269531 133.277344 59.550781 C 132.671875 70.457031 124.832031 77.550781 124.496094 77.847656 C 124.113281 78.191406 123.628906 78.363281 123.148438 78.363281 Z M 123.148438 78.363281 " fill-opacity="1" fill-rule="nonzero"/></g><path fill="#000000" d="M 165.855469 78.363281 C 165.226562 78.363281 164.609375 78.070312 164.210938 77.523438 C 163.550781 76.617188 163.75 75.34375 164.652344 74.679688 C 164.703125 74.644531 169.636719 70.960938 169.90625 65.71875 C 170.082031 62.3125 168.257812 58.855469 164.484375 55.4375 C 159.75 51.140625 157.480469 46.582031 157.738281 41.886719 C 158.125 34.691406 164.394531 30.070312 164.660156 29.875 C 165.558594 29.21875 166.832031 29.417969 167.492188 30.328125 C 168.148438 31.234375 167.953125 32.507812 167.050781 33.171875 C 167 33.207031 162.066406 36.890625 161.796875 42.132812 C 161.621094 45.539062 163.445312 48.996094 167.21875 52.414062 C 171.953125 56.710938 174.222656 61.265625 173.964844 65.964844 C 173.574219 73.160156 167.308594 77.78125 167.042969 77.976562 C 166.683594 78.234375 166.269531 78.363281 165.855469 78.363281 Z M 165.855469 78.363281 " fill-opacity="1" fill-rule="nonzero"/><path fill="#000000" d="M 80.445312 78.363281 C 79.820312 78.363281 79.199219 78.070312 78.800781 77.523438 C 78.144531 76.617188 78.339844 75.34375 79.242188 74.679688 C 79.296875 74.644531 84.226562 70.960938 84.5 65.71875 C 84.671875 62.3125 82.851562 58.855469 79.078125 55.4375 C 74.34375 51.140625 72.070312 46.582031 72.328125 41.886719 C 72.71875 34.691406 78.984375 30.070312 79.25 29.875 C 80.148438 29.21875 81.421875 29.417969 82.082031 30.328125 C 82.742188 31.234375 82.542969 32.507812 81.640625 33.171875 C 81.589844 33.207031 76.65625 36.890625 76.386719 42.132812 C 76.210938 45.539062 78.035156 48.996094 81.808594 52.414062 C 86.542969 56.710938 88.816406 61.265625 88.558594 65.964844 C 88.167969 73.160156 81.898438 77.78125 81.632812 77.976562 C 81.277344 78.234375 80.859375 78.363281 80.445312 78.363281 Z M 80.445312 78.363281 " fill-opacity="1" fill-rule="nonzero"/></g></g></svg>