<svg xmlns="http://www.w3.org/2000/svg" xmlns:xlink="http://www.w3.org/1999/xlink" width="816" zoomAndPan="magnify" viewBox="0 0 612 791.999994" height="1056" preserveAspectRatio="xMidYMid meet" version="1.0"><defs><clipPath id="da46ae0a81"><path d="M 33.375 134 L 209.964844 134 L 209.964844 224 L 33.375 224 Z M 33.375 134 " clip-rule="nonzero"/></clipPath><clipPath id="962d170ef3"><path d="M 31.351562 100.691406 L 212.429688 100.691406 L 212.429688 140.421875 L 31.351562 140.421875 Z M 31.351562 100.691406 " clip-rule="nonzero"/></clipPath><clipPath id="6aba0a5dd4"><path d="M 0.351562 0.691406 L 181.429688 0.691406 L 181.429688 40.421875 L 0.351562 40.421875 Z M 0.351562 0.691406 " clip-rule="nonzero"/></clipPath><clipPath id="bfaa2a9faa"><rect x="0" width="182" y="0" height="41"/></clipPath><clipPath id="70a52ea0b6"><path d="M 86 145 L 163 145 L 163 229 L 86 229 Z M 86 145 " clip-rule="nonzero"/></clipPath><clipPath id="3f1ec57859"><path d="M 160.757812 229.945312 L 86.8125 228.300781 L 88.664062 145.113281 L 162.609375 146.757812 Z M 160.757812 229.945312 " clip-rule="nonzero"/></clipPath><clipPath id="cf6118c52a"><path d="M 161.164062 229.957031 L 86.296875 228.289062 L 88.148438 145.101562 L 163.015625 146.765625 Z M 161.164062 229.957031 " clip-rule="nonzero"/></clipPath><clipPath id="012fbba70e"><path d="M 201.023438 230.84375 L 49.4375 227.46875 L 51.453125 136.886719 L 203.039062 140.261719 Z M 201.023438 230.84375 " clip-rule="nonzero"/></clipPath><clipPath id="8a026a9d92"><path d="M 1 222 L 18 222 L 18 239.058594 L 1 239.058594 Z M 1 222 " clip-rule="nonzero"/></clipPath><clipPath id="e073a0cee4"><path d="M 227 222 L 245 222 L 245 239.058594 L 227 239.058594 Z M 227 222 " clip-rule="nonzero"/></clipPath><clipPath id="ddae36d628"><path d="M 13 235 L 232 235 L 232 239.058594 L 13 239.058594 Z M 13 235 " clip-rule="nonzero"/></clipPath><clipPath id="259f9e1a4d"><path d="M 112 0.523438 L 133 0.523438 L 133 78 L 112 78 Z M 112 0.523438 " clip-rule="nonzero"/></clipPath><clipPath id="6eff2e6f23"><rect x="0" width="262" y="0" height="240"/></clipPath></defs><rect x="-61.2" width="734.4" fill="#ffffff" y="-79.199999" height="950.399992" fill-opacity="1"/><rect x="-61.2" width="734.4" fill="#ffffff" y="-79.199999" height="950.399992" fill-opacity="1"/><g transform="matrix(1, 0, 0, 1, 175, 276)"><g clip-path="url(#6eff2e6f23)"><g clip-path="url(#da46ae0a81)"><path fill="#462b0d" d="M 33.808594 134.125 L 209.964844 134.125 C 209.195312 165.542969 197.089844 190.707031 171.21875 207.882812 C 140.914062 228 108.84375 229.054688 77.417969 210.828125 C 48.71875 194.183594 35.046875 167.949219 33.804688 134.128906 Z M 33.808594 134.125 " fill-opacity="1" fill-rule="nonzero"/></g><g clip-path="url(#962d170ef3)"><g transform="matrix(1, 0, 0, 1, 31, 100)"><g clip-path="url(#bfaa2a9faa)"><g clip-path="url(#6aba0a5dd4)"><path fill="#462b0d" d="M 0.351562 0.691406 L 181.46875 0.691406 L 181.46875 40.421875 L 0.351562 40.421875 Z M 0.351562 0.691406 " fill-opacity="1" fill-rule="nonzero"/></g></g></g></g><g clip-path="url(#70a52ea0b6)"><g clip-path="url(#3f1ec57859)"><g clip-path="url(#cf6118c52a)"><g clip-path="url(#012fbba70e)"><path fill="#000000" d="M 53.140625 138.953125 C 53.152344 138.480469 53.136719 138.425781 53.03125 138.53125 C 52.703125 138.851562 51.652344 145.703125 51.289062 149.882812 C 51.113281 151.933594 51.046875 158.265625 51.179688 160.382812 C 51.320312 162.597656 51.523438 164.632812 51.808594 166.695312 C 53.726562 180.523438 59.179688 192.871094 67.976562 203.3125 C 69.28125 204.863281 72.3125 208.03125 73.761719 209.363281 C 83.574219 218.375 95.398438 224.273438 108.636719 226.761719 C 120.800781 229.046875 133.230469 228.257812 145.628906 224.40625 C 156.421875 221.054688 166.402344 215.523438 175.152344 208.046875 C 176.742188 206.6875 180.105469 203.445312 181.589844 201.839844 C 190.707031 191.976562 196.949219 180.886719 200.316406 168.566406 C 201.3125 164.921875 201.972656 161.484375 202.445312 157.492188 C 202.707031 155.261719 202.863281 148.371094 202.691406 146.339844 C 202.480469 143.761719 202.066406 140.941406 201.832031 140.480469 C 201.714844 140.246094 201.351562 140.253906 201.25 140.496094 C 201.203125 140.597656 201.089844 142.46875 200.992188 144.652344 C 200.800781 148.894531 200.628906 151.035156 200.222656 154.0625 C 198.285156 168.558594 192.65625 182.007812 183.804688 193.308594 C 171.144531 209.46875 152.804688 220.09375 133.066406 222.699219 C 128.921875 223.25 126.058594 223.390625 121.285156 223.28125 C 117.515625 223.199219 116.289062 223.117188 113.578125 222.765625 C 97.191406 220.644531 82.273438 213.078125 71.285156 201.316406 C 64.339844 193.886719 59.210938 185.019531 56.140625 175.144531 C 54.894531 171.148438 53.910156 166.289062 53.511719 162.210938 C 53.449219 161.582031 53.308594 160.171875 53.199219 159.074219 C 53.085938 157.980469 52.96875 156.4375 52.9375 155.644531 C 52.847656 153.335938 52.773438 151.921875 52.671875 150.609375 C 52.539062 148.890625 52.625 145.765625 52.898438 142.371094 C 53.023438 140.792969 53.136719 139.253906 53.140625 138.953125 Z M 53.140625 138.953125 " fill-opacity="1" fill-rule="nonzero"/></g></g></g></g><path fill="#000000" d="M 241.984375 226.941406 L 3.03125 226.941406 C 1.914062 226.941406 1.007812 226.039062 1.007812 224.921875 C 1.007812 223.808594 1.914062 222.902344 3.03125 222.902344 L 241.984375 222.902344 C 243.105469 222.902344 244.011719 223.808594 244.011719 224.921875 C 244.011719 226.039062 243.105469 226.941406 241.984375 226.941406 Z M 241.984375 226.941406 " fill-opacity="1" fill-rule="nonzero"/><path fill="#000000" d="M 88.082031 218.863281 C 87.808594 218.863281 87.539062 218.808594 87.273438 218.695312 C 21.890625 190.171875 29.28125 100.445312 29.367188 99.542969 C 29.46875 98.429688 30.488281 97.644531 31.566406 97.710938 C 32.679688 97.816406 33.5 98.796875 33.402344 99.90625 C 33.320312 100.78125 26.203125 187.644531 88.894531 214.996094 C 89.917969 215.441406 90.386719 216.632812 89.9375 217.65625 C 89.605469 218.410156 88.863281 218.863281 88.082031 218.863281 Z M 88.082031 218.863281 " fill-opacity="1" fill-rule="nonzero"/><path fill="#000000" d="M 92.140625 209.617188 C 91.867188 209.617188 91.59375 209.5625 91.332031 209.445312 C 75.582031 202.574219 38.976562 178.917969 39.210938 107.792969 C 39.214844 106.679688 40.121094 105.78125 41.234375 105.78125 C 41.238281 105.78125 41.238281 105.78125 41.242188 105.78125 C 42.359375 105.785156 43.265625 106.695312 43.261719 107.808594 C 43.035156 176.539062 77.9375 199.195312 92.953125 205.746094 C 93.976562 206.195312 94.441406 207.382812 93.996094 208.40625 C 93.664062 209.164062 92.921875 209.617188 92.140625 209.617188 Z M 92.140625 209.617188 " fill-opacity="1" fill-rule="nonzero"/><path fill="#000000" d="M 156.933594 218.863281 C 156.15625 218.863281 155.414062 218.410156 155.082031 217.65625 C 154.632812 216.632812 155.101562 215.441406 156.125 214.996094 C 218.816406 187.644531 211.699219 100.78125 211.617188 99.90625 C 211.519531 98.796875 212.339844 97.816406 213.453125 97.710938 C 214.46875 97.640625 215.550781 98.429688 215.652344 99.542969 C 215.734375 100.445312 223.128906 190.171875 157.746094 218.695312 C 157.480469 218.808594 157.207031 218.863281 156.933594 218.863281 Z M 156.933594 218.863281 " fill-opacity="1" fill-rule="nonzero"/><path fill="#000000" d="M 213.636719 101.742188 L 31.382812 101.742188 C 30.265625 101.742188 29.359375 100.839844 29.359375 99.722656 C 29.359375 98.609375 30.261719 97.703125 31.382812 97.703125 L 213.636719 97.703125 C 214.753906 97.703125 215.660156 98.609375 215.660156 99.722656 C 215.660156 100.839844 214.753906 101.742188 213.636719 101.742188 Z M 213.636719 101.742188 " fill-opacity="1" fill-rule="nonzero"/><path fill="#000000" d="M 197.433594 194.632812 C 196.605469 194.632812 195.824219 194.121094 195.527344 193.292969 C 195.152344 192.242188 195.699219 191.089844 196.753906 190.714844 C 230.796875 178.585938 252.613281 153.039062 255.859375 135.160156 C 256.675781 130.6875 256.6875 124.546875 252.136719 120.714844 C 246.191406 115.714844 234.207031 116.105469 218.375 121.816406 C 217.335938 122.199219 216.164062 121.65625 215.78125 120.605469 C 215.398438 119.554688 215.945312 118.402344 216.996094 118.023438 C 239.109375 110.03125 249.730469 113.402344 254.746094 117.632812 C 259.453125 121.589844 261.261719 128.074219 259.847656 135.878906 C 256.398438 154.875 233.585938 181.878906 198.113281 194.515625 C 197.890625 194.59375 197.660156 194.632812 197.433594 194.632812 Z M 197.433594 194.632812 " fill-opacity="1" fill-rule="nonzero"/><path fill="#000000" d="M 201.484375 184.351562 C 200.707031 184.351562 199.960938 183.898438 199.628906 183.140625 C 199.183594 182.113281 199.648438 180.925781 200.675781 180.480469 C 227.984375 168.609375 245.382812 147.53125 247.890625 133.722656 C 248.242188 131.773438 248.585938 128.296875 246.90625 126.882812 C 244.042969 124.472656 231.621094 125.113281 218.375 129.890625 C 217.339844 130.277344 216.164062 129.734375 215.785156 128.679688 C 215.398438 127.632812 215.945312 126.476562 216.996094 126.097656 C 228.960938 121.78125 244.421875 119.503906 249.519531 123.800781 C 251.953125 125.851562 252.769531 129.53125 251.878906 134.441406 C 249.113281 149.648438 231.195312 171.621094 202.296875 184.179688 C 202.03125 184.296875 201.757812 184.351562 201.484375 184.351562 Z M 201.484375 184.351562 " fill-opacity="1" fill-rule="nonzero"/><g clip-path="url(#8a026a9d92)"><path fill="#000000" d="M 15.183594 239.058594 C 7.367188 239.058594 1.007812 232.714844 1.007812 224.921875 C 1.007812 223.808594 1.914062 222.902344 3.03125 222.902344 C 4.152344 222.902344 5.058594 223.808594 5.058594 224.921875 C 5.058594 230.492188 9.597656 235.019531 15.183594 235.019531 C 16.300781 235.019531 17.207031 235.921875 17.207031 237.039062 C 17.207031 238.15625 16.300781 239.058594 15.183594 239.058594 Z M 15.183594 239.058594 " fill-opacity="1" fill-rule="nonzero"/></g><g clip-path="url(#e073a0cee4)"><path fill="#000000" d="M 229.835938 239.058594 C 228.714844 239.058594 227.808594 238.15625 227.808594 237.039062 C 227.808594 235.921875 228.714844 235.019531 229.835938 235.019531 C 235.417969 235.019531 239.960938 230.492188 239.960938 224.921875 C 239.960938 223.808594 240.867188 222.902344 241.984375 222.902344 C 243.105469 222.902344 244.011719 223.808594 244.011719 224.921875 C 244.011719 232.714844 237.652344 239.058594 229.835938 239.058594 Z M 229.835938 239.058594 " fill-opacity="1" fill-rule="nonzero"/></g><g clip-path="url(#ddae36d628)"><path fill="#000000" d="M 229.835938 239.058594 L 15.183594 239.058594 C 14.0625 239.058594 13.160156 238.15625 13.160156 237.039062 C 13.160156 235.921875 14.0625 235.019531 15.183594 235.019531 L 229.835938 235.019531 C 230.953125 235.019531 231.859375 235.921875 231.859375 237.039062 C 231.859375 238.15625 230.953125 239.058594 229.835938 239.058594 Z M 229.835938 239.058594 " fill-opacity="1" fill-rule="nonzero"/></g><g clip-path="url(#259f9e1a4d)"><path fill="#000000" d="M 122.511719 77.511719 C 121.953125 77.511719 121.402344 77.28125 121 76.835938 C 120.253906 76.003906 120.328125 74.730469 121.160156 73.984375 C 121.226562 73.921875 128.066406 67.707031 128.554688 58.589844 C 128.882812 52.496094 126.339844 46.410156 121 40.496094 C 114.902344 33.738281 112.015625 26.648438 112.417969 19.433594 C 113.023438 8.617188 120.832031 1.582031 121.164062 1.285156 C 121.992188 0.546875 123.273438 0.625 124.015625 1.453125 C 124.761719 2.285156 124.6875 3.558594 123.859375 4.304688 C 123.789062 4.367188 116.953125 10.582031 116.460938 19.699219 C 116.132812 25.792969 118.675781 31.878906 124.015625 37.792969 C 130.113281 44.550781 133 51.640625 132.597656 58.855469 C 131.992188 69.671875 124.1875 76.707031 123.851562 77.003906 C 123.46875 77.339844 122.992188 77.511719 122.511719 77.511719 Z M 122.511719 77.511719 " fill-opacity="1" fill-rule="nonzero"/></g><path fill="#000000" d="M 165.039062 77.511719 C 164.414062 77.511719 163.796875 77.222656 163.402344 76.679688 C 162.746094 75.78125 162.941406 74.519531 163.839844 73.859375 C 163.890625 73.824219 168.804688 70.171875 169.074219 64.972656 C 169.246094 61.597656 167.433594 58.167969 163.675781 54.777344 C 158.960938 50.519531 156.699219 46 156.953125 41.339844 C 157.34375 34.207031 163.582031 29.625 163.847656 29.429688 C 164.742188 28.777344 166.011719 28.976562 166.667969 29.878906 C 167.324219 30.777344 167.128906 32.042969 166.230469 32.699219 C 166.175781 32.734375 161.265625 36.386719 160.996094 41.585938 C 160.824219 44.960938 162.636719 48.390625 166.394531 51.78125 C 171.109375 56.039062 173.371094 60.558594 173.113281 65.21875 C 172.726562 72.351562 166.488281 76.933594 166.222656 77.128906 C 165.867188 77.386719 165.449219 77.511719 165.039062 77.511719 Z M 165.039062 77.511719 " fill-opacity="1" fill-rule="nonzero"/><path fill="#000000" d="M 79.988281 77.511719 C 79.363281 77.511719 78.746094 77.222656 78.351562 76.679688 C 77.691406 75.78125 77.890625 74.519531 78.789062 73.859375 C 78.839844 73.824219 83.753906 70.171875 84.023438 64.972656 C 84.195312 61.597656 82.378906 58.167969 78.621094 54.777344 C 73.90625 50.519531 71.644531 46 71.902344 41.339844 C 72.289062 34.207031 78.53125 29.625 78.796875 29.429688 C 79.691406 28.777344 80.960938 28.976562 81.617188 29.878906 C 82.273438 30.777344 82.074219 32.042969 81.175781 32.699219 C 81.125 32.734375 76.214844 36.386719 75.945312 41.585938 C 75.769531 44.960938 77.585938 48.390625 81.34375 51.78125 C 86.058594 56.039062 88.320312 60.558594 88.0625 65.21875 C 87.675781 72.351562 81.433594 76.933594 81.167969 77.128906 C 80.8125 77.386719 80.398438 77.511719 79.988281 77.511719 Z M 79.988281 77.511719 " fill-opacity="1" fill-rule="nonzero"/></g></g></svg>