<svg xmlns="http://www.w3.org/2000/svg" xmlns:xlink="http://www.w3.org/1999/xlink" width="816" zoomAndPan="magnify" viewBox="0 0 612 791.999994" height="1056" preserveAspectRatio="xMidYMid meet" version="1.0"><defs><clipPath id="04d88f902d"><path d="M 32.957031 129.488281 L 203.441406 129.488281 L 203.441406 217 L 32.957031 217 Z M 32.957031 129.488281 " clip-rule="nonzero"/></clipPath><clipPath id="8891982f10"><path d="M 30.542969 98.835938 L 205.820312 98.835938 L 205.820312 129.585938 L 30.542969 129.585938 Z M 30.542969 98.835938 " clip-rule="nonzero"/></clipPath><clipPath id="30529491c4"><path d="M 0.542969 0.835938 L 175.820312 0.835938 L 175.820312 31.585938 L 0.542969 31.585938 Z M 0.542969 0.835938 " clip-rule="nonzero"/></clipPath><clipPath id="2ca98b31e8"><rect x="0" width="176" y="0" height="32"/></clipPath><clipPath id="08c551829c"><path d="M 1 216 L 17 216 L 17 231.691406 L 1 231.691406 Z M 1 216 " clip-rule="nonzero"/></clipPath><clipPath id="222f4d7c50"><path d="M 220 216 L 236 216 L 236 231.691406 L 220 231.691406 Z M 220 216 " clip-rule="nonzero"/></clipPath><clipPath id="024aff4634"><path d="M 12 227 L 225 227 L 225 231.691406 L 12 231.691406 Z M 12 227 " clip-rule="nonzero"/></clipPath><clipPath id="480ed7ccbf"><path d="M 108 0.351562 L 129 0.351562 L 129 76 L 108 76 Z M 108 0.351562 " clip-rule="nonzero"/></clipPath><clipPath id="950f80832d"><path d="M 84 140 L 158 140 L 158 221 L 84 221 Z M 84 140 " clip-rule="nonzero"/></clipPath><clipPath id="352a1c508e"><path d="M 155.8125 222.425781 L 84.683594 220.839844 L 86.472656 140.316406 L 157.601562 141.902344 Z M 155.8125 222.425781 " clip-rule="nonzero"/></clipPath><clipPath id="6bbba8654b"><path d="M 156.207031 222.433594 L 84.183594 220.828125 L 85.976562 140.304688 L 158 141.910156 Z M 156.207031 222.433594 " clip-rule="nonzero"/></clipPath><clipPath id="1afe5e546c"><path d="M 194.671875 223.289062 L 47.492188 220.011719 L 49.445312 132.332031 L 196.625 135.609375 Z M 194.671875 223.289062 " clip-rule="nonzero"/></clipPath><clipPath id="6258d09fcd"><rect x="0" width="254" y="0" height="232"/></clipPath></defs><rect x="-61.2" width="734.4" fill="#ffffff" y="-79.199999" height="950.399992" fill-opacity="1"/><rect x="-61.2" width="734.4" fill="#ffffff" y="-79.199999" height="950.399992" fill-opacity="1"/><g transform="matrix(1, 0, 0, 1, 179, 280)"><g clip-path="url(#6258d09fcd)"><g clip-path="url(#04d88f902d)"><path fill="#462b0d" d="M 32.921875 129.671875 L 203.441406 129.671875 C 202.699219 160.082031 190.976562 184.445312 165.9375 201.070312 C 136.601562 220.542969 105.558594 221.5625 75.136719 203.921875 C 47.355469 187.804688 34.121094 162.414062 32.917969 129.675781 Z M 32.921875 129.671875 " fill-opacity="1" fill-rule="nonzero"/></g><g clip-path="url(#8891982f10)"><g transform="matrix(1, 0, 0, 1, 30, 98)"><g clip-path="url(#2ca98b31e8)"><g clip-path="url(#30529491c4)"><path fill="#ffe7cc" d="M 0.542969 0.835938 L 175.800781 0.835938 L 175.800781 31.585938 L 0.542969 31.585938 Z M 0.542969 0.835938 " fill-opacity="1" fill-rule="nonzero"/></g></g></g></g><path fill="#000000" d="M 234.019531 219.941406 L 3.125 219.941406 C 2.042969 219.941406 1.167969 219.066406 1.167969 217.980469 C 1.167969 216.898438 2.042969 216.023438 3.125 216.023438 L 234.019531 216.023438 C 235.101562 216.023438 235.976562 216.898438 235.976562 217.980469 C 235.976562 219.066406 235.101562 219.941406 234.019531 219.941406 Z M 234.019531 219.941406 " fill-opacity="1" fill-rule="nonzero"/><path fill="#000000" d="M 85.308594 212.105469 C 85.042969 212.105469 84.78125 212.054688 84.523438 211.941406 C 21.347656 184.28125 28.492188 97.261719 28.570312 96.382812 C 28.667969 95.304688 29.65625 94.542969 30.695312 94.609375 C 31.773438 94.707031 32.5625 95.660156 32.46875 96.734375 C 32.390625 97.585938 25.511719 181.828125 86.089844 208.355469 C 87.082031 208.789062 87.53125 209.941406 87.101562 210.933594 C 86.777344 211.667969 86.058594 212.105469 85.308594 212.105469 Z M 85.308594 212.105469 " fill-opacity="1" fill-rule="nonzero"/><path fill="#000000" d="M 89.226562 203.136719 C 88.964844 203.136719 88.699219 203.082031 88.445312 202.972656 C 73.226562 196.308594 37.855469 173.363281 38.082031 104.386719 C 38.085938 103.308594 38.960938 102.433594 40.039062 102.433594 C 40.042969 102.433594 40.042969 102.433594 40.046875 102.433594 C 41.125 102.4375 42 103.320312 41.996094 104.402344 C 41.777344 171.058594 75.503906 193.03125 90.011719 199.386719 C 91 199.816406 91.453125 200.972656 91.019531 201.964844 C 90.699219 202.699219 89.980469 203.136719 89.226562 203.136719 Z M 89.226562 203.136719 " fill-opacity="1" fill-rule="nonzero"/><path fill="#000000" d="M 151.835938 212.105469 C 151.085938 212.105469 150.367188 211.667969 150.042969 210.933594 C 149.613281 209.941406 150.0625 208.789062 151.054688 208.355469 C 211.632812 181.828125 204.753906 97.585938 204.675781 96.734375 C 204.582031 95.660156 205.371094 94.707031 206.449219 94.609375 C 207.429688 94.539062 208.472656 95.304688 208.574219 96.382812 C 208.652344 97.261719 215.796875 184.28125 152.621094 211.941406 C 152.363281 212.054688 152.101562 212.105469 151.835938 212.105469 Z M 151.835938 212.105469 " fill-opacity="1" fill-rule="nonzero"/><path fill="#000000" d="M 206.625 98.519531 L 30.519531 98.519531 C 29.4375 98.519531 28.5625 97.640625 28.5625 96.558594 C 28.5625 95.476562 29.4375 94.601562 30.519531 94.601562 L 206.625 94.601562 C 207.707031 94.601562 208.582031 95.476562 208.582031 96.558594 C 208.582031 97.640625 207.707031 98.519531 206.625 98.519531 Z M 206.625 98.519531 " fill-opacity="1" fill-rule="nonzero"/><path fill="#000000" d="M 190.972656 188.605469 C 190.167969 188.605469 189.414062 188.109375 189.128906 187.304688 C 188.765625 186.289062 189.292969 185.167969 190.3125 184.804688 C 223.207031 173.042969 244.289062 148.265625 247.425781 130.929688 C 248.210938 126.585938 248.222656 120.636719 243.828125 116.917969 C 238.085938 112.066406 226.5 112.445312 211.203125 117.984375 C 210.203125 118.355469 209.066406 117.832031 208.699219 116.8125 C 208.328125 115.792969 208.855469 114.671875 209.871094 114.304688 C 231.238281 106.554688 241.5 109.828125 246.351562 113.925781 C 250.898438 117.765625 252.644531 124.054688 251.277344 131.625 C 247.945312 150.046875 225.90625 176.238281 191.628906 188.492188 C 191.410156 188.566406 191.1875 188.605469 190.972656 188.605469 Z M 190.972656 188.605469 " fill-opacity="1" fill-rule="nonzero"/><path fill="#000000" d="M 194.882812 178.632812 C 194.132812 178.632812 193.414062 178.195312 193.09375 177.460938 C 192.660156 176.464844 193.113281 175.3125 194.101562 174.882812 C 220.492188 163.367188 237.300781 142.921875 239.726562 129.53125 C 240.066406 127.644531 240.398438 124.273438 238.773438 122.898438 C 236.007812 120.5625 224.003906 121.183594 211.203125 125.816406 C 210.203125 126.191406 209.066406 125.664062 208.699219 124.644531 C 208.328125 123.625 208.855469 122.503906 209.875 122.136719 C 221.433594 117.953125 236.375 115.742188 241.300781 119.910156 C 243.648438 121.898438 244.4375 125.464844 243.578125 130.226562 C 240.90625 144.976562 223.59375 166.285156 195.667969 178.46875 C 195.410156 178.582031 195.148438 178.632812 194.882812 178.632812 Z M 194.882812 178.632812 " fill-opacity="1" fill-rule="nonzero"/><g clip-path="url(#08c551829c)"><path fill="#000000" d="M 14.867188 231.691406 C 7.3125 231.691406 1.167969 225.539062 1.167969 217.980469 C 1.167969 216.898438 2.042969 216.023438 3.125 216.023438 C 4.207031 216.023438 5.082031 216.898438 5.082031 217.980469 C 5.082031 223.382812 9.46875 227.773438 14.867188 227.773438 C 15.949219 227.773438 16.824219 228.652344 16.824219 229.734375 C 16.824219 230.816406 15.949219 231.691406 14.867188 231.691406 Z M 14.867188 231.691406 " fill-opacity="1" fill-rule="nonzero"/></g><g clip-path="url(#222f4d7c50)"><path fill="#000000" d="M 222.277344 231.691406 C 221.195312 231.691406 220.320312 230.816406 220.320312 229.734375 C 220.320312 228.652344 221.195312 227.773438 222.277344 227.773438 C 227.675781 227.773438 232.0625 223.382812 232.0625 217.980469 C 232.0625 216.898438 232.9375 216.023438 234.019531 216.023438 C 235.101562 216.023438 235.976562 216.898438 235.976562 217.980469 C 235.976562 225.539062 229.832031 231.691406 222.277344 231.691406 Z M 222.277344 231.691406 " fill-opacity="1" fill-rule="nonzero"/></g><g clip-path="url(#024aff4634)"><path fill="#000000" d="M 222.277344 231.691406 L 14.867188 231.691406 C 13.785156 231.691406 12.910156 230.816406 12.910156 229.734375 C 12.910156 228.652344 13.785156 227.773438 14.867188 227.773438 L 222.277344 227.773438 C 223.359375 227.773438 224.234375 228.652344 224.234375 229.734375 C 224.234375 230.816406 223.359375 231.691406 222.277344 231.691406 Z M 222.277344 231.691406 " fill-opacity="1" fill-rule="nonzero"/></g><g clip-path="url(#480ed7ccbf)"><path fill="#000000" d="M 118.574219 75.015625 C 118.035156 75.015625 117.5 74.796875 117.117188 74.363281 C 116.394531 73.554688 116.464844 72.320312 117.269531 71.597656 C 117.332031 71.535156 123.941406 65.507812 124.414062 56.664062 C 124.730469 50.753906 122.273438 44.851562 117.117188 39.121094 C 111.222656 32.5625 108.433594 25.691406 108.820312 18.691406 C 109.40625 8.203125 116.949219 1.378906 117.273438 1.089844 C 118.070312 0.375 119.308594 0.449219 120.027344 1.25 C 120.75 2.058594 120.675781 3.292969 119.875 4.015625 C 119.808594 4.078125 113.203125 10.105469 112.726562 18.949219 C 112.410156 24.859375 114.867188 30.761719 120.027344 36.496094 C 125.921875 43.050781 128.710938 49.925781 128.320312 56.925781 C 127.734375 67.414062 120.191406 74.238281 119.871094 74.523438 C 119.5 74.851562 119.039062 75.015625 118.574219 75.015625 Z M 118.574219 75.015625 " fill-opacity="1" fill-rule="nonzero"/></g><path fill="#000000" d="M 159.667969 75.015625 C 159.0625 75.015625 158.46875 74.738281 158.085938 74.210938 C 157.449219 73.339844 157.640625 72.113281 158.507812 71.476562 C 158.558594 71.441406 163.304688 67.898438 163.566406 62.859375 C 163.734375 59.582031 161.980469 56.253906 158.347656 52.96875 C 153.792969 48.839844 151.609375 44.457031 151.855469 39.9375 C 152.230469 33.019531 158.261719 28.574219 158.515625 28.386719 C 159.382812 27.753906 160.605469 27.945312 161.242188 28.820312 C 161.875 29.695312 161.683594 30.917969 160.816406 31.558594 C 160.769531 31.589844 156.019531 35.132812 155.761719 40.175781 C 155.59375 43.449219 157.347656 46.777344 160.976562 50.0625 C 165.535156 54.195312 167.71875 58.578125 167.472656 63.09375 C 167.097656 70.015625 161.066406 74.457031 160.808594 74.644531 C 160.464844 74.894531 160.066406 75.015625 159.667969 75.015625 Z M 159.667969 75.015625 " fill-opacity="1" fill-rule="nonzero"/><path fill="#000000" d="M 77.484375 75.015625 C 76.878906 75.015625 76.285156 74.738281 75.902344 74.210938 C 75.269531 73.339844 75.457031 72.113281 76.328125 71.476562 C 76.375 71.441406 81.121094 67.898438 81.382812 62.859375 C 81.550781 59.582031 79.796875 56.253906 76.164062 52.96875 C 71.609375 48.839844 69.425781 44.457031 69.671875 39.9375 C 70.046875 33.019531 76.078125 28.574219 76.332031 28.386719 C 77.199219 27.753906 78.425781 27.945312 79.058594 28.820312 C 79.691406 29.695312 79.5 30.917969 78.632812 31.558594 C 78.585938 31.589844 73.839844 35.132812 73.578125 40.175781 C 73.410156 43.449219 75.164062 46.777344 78.792969 50.0625 C 83.351562 54.195312 85.535156 58.578125 85.289062 63.09375 C 84.914062 70.015625 78.882812 74.457031 78.625 74.644531 C 78.28125 74.894531 77.882812 75.015625 77.484375 75.015625 Z M 77.484375 75.015625 " fill-opacity="1" fill-rule="nonzero"/><g clip-path="url(#950f80832d)"><g clip-path="url(#352a1c508e)"><g clip-path="url(#6bbba8654b)"><g clip-path="url(#1afe5e546c)"><path fill="#000000" d="M 51.085938 134.335938 C 51.097656 133.875 51.082031 133.824219 50.980469 133.925781 C 50.660156 134.238281 49.640625 140.867188 49.289062 144.914062 C 49.117188 146.902344 49.054688 153.03125 49.183594 155.078125 C 49.316406 157.222656 49.515625 159.191406 49.792969 161.1875 C 51.65625 174.570312 56.953125 186.523438 65.492188 196.632812 C 66.761719 198.132812 69.703125 201.199219 71.109375 202.488281 C 80.636719 211.210938 92.117188 216.921875 104.972656 219.332031 C 116.78125 221.542969 128.851562 220.777344 140.890625 217.054688 C 151.367188 213.808594 161.058594 208.457031 169.550781 201.222656 C 171.097656 199.902344 174.359375 196.765625 175.800781 195.214844 C 184.652344 185.667969 190.710938 174.933594 193.980469 163.007812 C 194.945312 159.480469 195.589844 156.152344 196.046875 152.292969 C 196.300781 150.128906 196.449219 143.460938 196.289062 141.492188 C 196.078125 139 195.675781 136.269531 195.453125 135.824219 C 195.335938 135.597656 194.984375 135.605469 194.882812 135.835938 C 194.839844 135.9375 194.730469 137.75 194.632812 139.863281 C 194.449219 143.964844 194.28125 146.039062 193.886719 148.96875 C 192.007812 163 186.546875 176.015625 177.953125 186.957031 C 165.660156 202.597656 147.855469 212.878906 128.691406 215.402344 C 124.664062 215.933594 121.886719 216.070312 117.25 215.964844 C 113.59375 215.882812 112.398438 215.800781 109.769531 215.460938 C 93.859375 213.410156 79.375 206.085938 68.703125 194.699219 C 61.960938 187.507812 56.980469 178.925781 54 169.367188 C 52.792969 165.5 51.832031 160.796875 51.445312 156.847656 C 51.386719 156.238281 51.25 154.871094 51.140625 153.8125 C 51.035156 152.75 50.921875 151.257812 50.890625 150.492188 C 50.800781 148.257812 50.726562 146.886719 50.628906 145.617188 C 50.5 143.957031 50.585938 140.929688 50.847656 137.640625 C 50.972656 136.113281 51.078125 134.628906 51.085938 134.335938 Z M 51.085938 134.335938 " fill-opacity="1" fill-rule="nonzero"/></g></g></g></g></g></g></svg>