<svg xmlns="http://www.w3.org/2000/svg" xmlns:xlink="http://www.w3.org/1999/xlink" width="816" zoomAndPan="magnify" viewBox="0 0 612 791.999994" height="1056" preserveAspectRatio="xMidYMid meet" version="1.0"><defs><clipPath id="e427eb2fda"><path d="M 33.59375 204.175781 L 211.03125 204.175781 L 211.03125 226 L 33.59375 226 Z M 33.59375 204.175781 " clip-rule="nonzero"/></clipPath><clipPath id="51b5e07ab6"><path d="M 30.976562 102.726562 L 213.882812 102.726562 L 213.882812 139.273438 L 30.976562 139.273438 Z M 30.976562 102.726562 " clip-rule="nonzero"/></clipPath><clipPath id="12a293646a"><path d="M 0.976562 0.726562 L 183.882812 0.726562 L 183.882812 37.273438 L 0.976562 37.273438 Z M 0.976562 0.726562 " clip-rule="nonzero"/></clipPath><clipPath id="1f3f9742b5"><rect x="0" width="184" y="0" height="38"/></clipPath><clipPath id="3e37092cf4"><path d="M 33.019531 135.066406 L 211.390625 135.066406 L 211.390625 205.027344 L 33.019531 205.027344 Z M 33.019531 135.066406 " clip-rule="nonzero"/></clipPath><clipPath id="998f227f87"><path d="M 0.46875 224 L 247 224 L 247 230 L 0.46875 230 Z M 0.46875 224 " clip-rule="nonzero"/></clipPath><clipPath id="a63304a360"><path d="M 0.46875 224 L 18 224 L 18 241.261719 L 0.46875 241.261719 Z M 0.46875 224 " clip-rule="nonzero"/></clipPath><clipPath id="0135bc7dd4"><path d="M 229 224 L 247 224 L 247 241.261719 L 229 241.261719 Z M 229 224 " clip-rule="nonzero"/></clipPath><clipPath id="6d5ae58917"><path d="M 12 237 L 234 237 L 234 241.261719 L 12 241.261719 Z M 12 237 " clip-rule="nonzero"/></clipPath><clipPath id="09231983cb"><path d="M 113 0.320312 L 134 0.320312 L 134 79 L 113 79 Z M 113 0.320312 " clip-rule="nonzero"/></clipPath><clipPath id="2d3201a78e"><path d="M 87 146 L 164 146 L 164 231 L 87 231 Z M 87 146 " clip-rule="nonzero"/></clipPath><clipPath id="bc4b98b8a2"><path d="M 162.058594 232.054688 L 87.367188 230.394531 L 89.234375 146.367188 L 163.929688 148.027344 Z M 162.058594 232.054688 " clip-rule="nonzero"/></clipPath><clipPath id="c4b3c7e22e"><path d="M 162.46875 232.066406 L 86.84375 230.382812 L 88.714844 146.355469 L 164.339844 148.039062 Z M 162.46875 232.066406 " clip-rule="nonzero"/></clipPath><clipPath id="f8ebc9b343"><path d="M 202.730469 232.960938 L 49.613281 229.554688 L 51.648438 138.054688 L 204.769531 141.464844 Z M 202.730469 232.960938 " clip-rule="nonzero"/></clipPath><clipPath id="5160ce5439"><rect x="0" width="264" y="0" height="243"/></clipPath></defs><rect x="-61.2" width="734.4" fill="#ffffff" y="-79.199999" height="950.399992" fill-opacity="1"/><rect x="-61.2" width="734.4" fill="#ffffff" y="-79.199999" height="950.399992" fill-opacity="1"/><g transform="matrix(1, 0, 0, 1, 174, 275)"><g clip-path="url(#5160ce5439)"><g clip-path="url(#e427eb2fda)"><path fill="#462b0d" d="M 33.835938 135.261719 L 211.769531 135.261719 C 210.996094 166.996094 198.765625 192.417969 172.632812 209.765625 C 142.023438 230.085938 109.628906 231.152344 77.886719 212.742188 C 48.898438 195.925781 35.085938 169.429688 33.832031 135.265625 Z M 33.835938 135.261719 " fill-opacity="1" fill-rule="nonzero"/></g><g clip-path="url(#51b5e07ab6)"><g transform="matrix(1, 0, 0, 1, 30, 102)"><g clip-path="url(#1f3f9742b5)"><g clip-path="url(#12a293646a)"><path fill="#ffe7cc" d="M 0.976562 0.726562 L 183.867188 0.726562 L 183.867188 37.273438 L 0.976562 37.273438 Z M 0.976562 0.726562 " fill-opacity="1" fill-rule="nonzero"/></g></g></g></g><g clip-path="url(#3e37092cf4)"><path fill="#ffe7cc" d="M 33.457031 135.261719 L 211.390625 135.261719 C 210.617188 166.992188 198.386719 192.414062 172.257812 209.765625 C 141.644531 230.085938 109.253906 231.148438 77.507812 212.738281 C 48.519531 195.925781 34.710938 169.425781 33.453125 135.265625 Z M 33.457031 135.261719 " fill-opacity="1" fill-rule="nonzero"/></g><g clip-path="url(#998f227f87)"><path fill="#000000" d="M 244.105469 229.023438 L 2.742188 229.023438 C 1.609375 229.023438 0.695312 228.109375 0.695312 226.980469 C 0.695312 225.855469 1.609375 224.941406 2.742188 224.941406 L 244.105469 224.941406 C 245.238281 224.941406 246.152344 225.855469 246.152344 226.980469 C 246.152344 228.109375 245.238281 229.023438 244.105469 229.023438 Z M 244.105469 229.023438 " fill-opacity="1" fill-rule="nonzero"/></g><path fill="#000000" d="M 88.648438 220.863281 C 88.375 220.863281 88.097656 220.808594 87.832031 220.691406 C 21.789062 191.878906 29.257812 101.25 29.339844 100.335938 C 29.445312 99.210938 30.476562 98.421875 31.5625 98.488281 C 32.6875 98.589844 33.515625 99.582031 33.414062 100.703125 C 33.335938 101.585938 26.144531 189.328125 89.46875 216.953125 C 90.503906 217.40625 90.976562 218.609375 90.523438 219.640625 C 90.1875 220.40625 89.4375 220.863281 88.648438 220.863281 Z M 88.648438 220.863281 " fill-opacity="1" fill-rule="nonzero"/><path fill="#000000" d="M 92.75 211.519531 C 92.472656 211.519531 92.199219 211.464844 91.929688 211.347656 C 76.023438 204.410156 39.046875 180.511719 39.285156 108.671875 C 39.289062 107.546875 40.203125 106.640625 41.328125 106.640625 C 41.332031 106.640625 41.332031 106.640625 41.335938 106.640625 C 42.464844 106.644531 43.378906 107.558594 43.375 108.6875 C 43.148438 178.109375 78.402344 200.996094 93.566406 207.613281 C 94.601562 208.0625 95.074219 209.265625 94.621094 210.296875 C 94.289062 211.0625 93.535156 211.519531 92.75 211.519531 Z M 92.75 211.519531 " fill-opacity="1" fill-rule="nonzero"/><path fill="#000000" d="M 158.195312 220.863281 C 157.410156 220.863281 156.660156 220.40625 156.324219 219.640625 C 155.871094 218.609375 156.34375 217.40625 157.378906 216.953125 C 220.703125 189.328125 213.511719 101.585938 213.433594 100.703125 C 213.332031 99.582031 214.160156 98.589844 215.285156 98.488281 C 216.3125 98.414062 217.402344 99.210938 217.507812 100.335938 C 217.589844 101.25 225.058594 191.878906 159.015625 220.691406 C 158.75 220.808594 158.472656 220.863281 158.195312 220.863281 Z M 158.195312 220.863281 " fill-opacity="1" fill-rule="nonzero"/><path fill="#000000" d="M 215.46875 102.558594 L 31.378906 102.558594 C 30.246094 102.558594 29.332031 101.648438 29.332031 100.519531 C 29.332031 99.390625 30.246094 98.480469 31.378906 98.480469 L 215.46875 98.480469 C 216.601562 98.480469 217.515625 99.390625 217.515625 100.519531 C 217.515625 101.648438 216.601562 102.558594 215.46875 102.558594 Z M 215.46875 102.558594 " fill-opacity="1" fill-rule="nonzero"/><path fill="#000000" d="M 199.105469 196.386719 C 198.265625 196.386719 197.480469 195.867188 197.179688 195.03125 C 196.800781 193.972656 197.351562 192.804688 198.417969 192.425781 C 232.804688 180.175781 254.839844 154.375 258.121094 136.316406 C 258.941406 131.792969 258.957031 125.59375 254.359375 121.722656 C 248.355469 116.671875 236.246094 117.066406 220.253906 122.832031 C 219.207031 123.21875 218.023438 122.675781 217.636719 121.613281 C 217.25 120.550781 217.800781 119.382812 218.863281 119.003906 C 241.199219 110.929688 251.929688 114.335938 256.996094 118.609375 C 261.75 122.609375 263.578125 129.15625 262.148438 137.039062 C 258.664062 156.226562 235.625 183.503906 199.792969 196.269531 C 199.566406 196.347656 199.332031 196.386719 199.105469 196.386719 Z M 199.105469 196.386719 " fill-opacity="1" fill-rule="nonzero"/><path fill="#000000" d="M 203.195312 186 C 202.410156 186 201.660156 185.542969 201.324219 184.777344 C 200.871094 183.742188 201.34375 182.542969 202.378906 182.09375 C 229.964844 170.101562 247.539062 148.808594 250.070312 134.859375 C 250.425781 132.890625 250.773438 129.382812 249.078125 127.953125 C 246.183594 125.519531 233.636719 126.164062 220.257812 130.992188 C 219.210938 131.382812 218.023438 130.832031 217.640625 129.769531 C 217.25 128.710938 217.804688 127.542969 218.867188 127.160156 C 230.949219 122.800781 246.566406 120.5 251.71875 124.835938 C 254.175781 126.910156 254.996094 130.625 254.097656 135.585938 C 251.304688 150.945312 233.207031 173.140625 204.015625 185.828125 C 203.75 185.945312 203.472656 186 203.195312 186 Z M 203.195312 186 " fill-opacity="1" fill-rule="nonzero"/><g clip-path="url(#a63304a360)"><path fill="#000000" d="M 15.015625 241.261719 C 7.121094 241.261719 0.695312 234.855469 0.695312 226.980469 C 0.695312 225.855469 1.609375 224.941406 2.742188 224.941406 C 3.871094 224.941406 4.789062 225.855469 4.789062 226.980469 C 4.789062 232.605469 9.375 237.179688 15.015625 237.179688 C 16.144531 237.179688 17.058594 238.09375 17.058594 239.21875 C 17.058594 240.347656 16.144531 241.261719 15.015625 241.261719 Z M 15.015625 241.261719 " fill-opacity="1" fill-rule="nonzero"/></g><g clip-path="url(#0135bc7dd4)"><path fill="#000000" d="M 231.832031 241.261719 C 230.703125 241.261719 229.789062 240.347656 229.789062 239.21875 C 229.789062 238.09375 230.703125 237.179688 231.832031 237.179688 C 237.472656 237.179688 242.058594 232.605469 242.058594 226.980469 C 242.058594 225.855469 242.976562 224.941406 244.105469 224.941406 C 245.234375 224.941406 246.152344 225.855469 246.152344 226.980469 C 246.152344 234.855469 239.726562 241.261719 231.832031 241.261719 Z M 231.832031 241.261719 " fill-opacity="1" fill-rule="nonzero"/></g><g clip-path="url(#6d5ae58917)"><path fill="#000000" d="M 231.832031 241.261719 L 15.015625 241.261719 C 13.882812 241.261719 12.96875 240.347656 12.96875 239.21875 C 12.96875 238.09375 13.882812 237.179688 15.015625 237.179688 L 231.832031 237.179688 C 232.964844 237.179688 233.878906 238.09375 233.878906 239.21875 C 233.878906 240.347656 232.964844 241.261719 231.832031 241.261719 Z M 231.832031 241.261719 " fill-opacity="1" fill-rule="nonzero"/></g><g clip-path="url(#09231983cb)"><path fill="#000000" d="M 123.425781 78.082031 C 122.863281 78.082031 122.304688 77.851562 121.902344 77.402344 C 121.144531 76.5625 121.222656 75.273438 122.058594 74.519531 C 122.128906 74.457031 129.035156 68.179688 129.53125 58.96875 C 129.863281 52.8125 127.292969 46.667969 121.902344 40.695312 C 115.742188 33.867188 112.824219 26.707031 113.230469 19.417969 C 113.84375 8.492188 121.730469 1.386719 122.0625 1.085938 C 122.898438 0.34375 124.195312 0.417969 124.945312 1.253906 C 125.699219 2.09375 125.625 3.382812 124.785156 4.136719 C 124.71875 4.199219 117.808594 10.476562 117.3125 19.6875 C 116.984375 25.84375 119.550781 31.988281 124.945312 37.960938 C 131.105469 44.789062 134.019531 51.949219 133.613281 59.238281 C 133.003906 70.164062 125.117188 77.269531 124.78125 77.570312 C 124.394531 77.910156 123.910156 78.082031 123.425781 78.082031 Z M 123.425781 78.082031 " fill-opacity="1" fill-rule="nonzero"/></g><path fill="#000000" d="M 166.382812 78.082031 C 165.75 78.082031 165.128906 77.792969 164.730469 77.242188 C 164.066406 76.332031 164.265625 75.058594 165.171875 74.394531 C 165.222656 74.359375 170.1875 70.667969 170.457031 65.417969 C 170.632812 62.007812 168.800781 58.542969 165.003906 55.121094 C 160.242188 50.816406 157.957031 46.253906 158.21875 41.546875 C 158.609375 34.339844 164.914062 29.710938 165.179688 29.515625 C 166.082031 28.859375 167.363281 29.058594 168.027344 29.96875 C 168.691406 30.878906 168.492188 32.152344 167.585938 32.816406 C 167.53125 32.855469 162.570312 36.542969 162.300781 41.792969 C 162.125 45.203125 163.957031 48.667969 167.753906 52.09375 C 172.515625 56.394531 174.800781 60.960938 174.539062 65.664062 C 174.148438 72.871094 167.84375 77.5 167.578125 77.695312 C 167.21875 77.953125 166.796875 78.082031 166.382812 78.082031 Z M 166.382812 78.082031 " fill-opacity="1" fill-rule="nonzero"/><path fill="#000000" d="M 80.472656 78.082031 C 79.839844 78.082031 79.21875 77.792969 78.816406 77.242188 C 78.15625 76.332031 78.355469 75.058594 79.261719 74.394531 C 79.3125 74.359375 84.277344 70.667969 84.546875 65.417969 C 84.722656 62.007812 82.890625 58.542969 79.09375 55.121094 C 74.332031 50.816406 72.046875 46.253906 72.304688 41.546875 C 72.699219 34.339844 79.003906 29.710938 79.269531 29.515625 C 80.171875 28.859375 81.453125 29.058594 82.117188 29.96875 C 82.78125 30.878906 82.582031 32.152344 81.675781 32.816406 C 81.621094 32.855469 76.660156 36.542969 76.390625 41.792969 C 76.214844 45.203125 78.046875 48.667969 81.84375 52.09375 C 86.605469 56.394531 88.890625 60.960938 88.628906 65.664062 C 88.238281 72.871094 81.933594 77.5 81.667969 77.695312 C 81.308594 77.953125 80.886719 78.082031 80.472656 78.082031 Z M 80.472656 78.082031 " fill-opacity="1" fill-rule="nonzero"/><g clip-path="url(#2d3201a78e)"><g clip-path="url(#bc4b98b8a2)"><g clip-path="url(#c4b3c7e22e)"><g clip-path="url(#f8ebc9b343)"><path fill="#000000" d="M 53.355469 140.144531 C 53.367188 139.667969 53.351562 139.609375 53.246094 139.714844 C 52.910156 140.042969 51.851562 146.960938 51.484375 151.1875 C 51.308594 153.257812 51.238281 159.652344 51.375 161.789062 C 51.515625 164.027344 51.71875 166.082031 52.007812 168.167969 C 53.949219 182.132812 59.457031 194.605469 68.339844 205.152344 C 69.660156 206.722656 72.71875 209.921875 74.183594 211.265625 C 84.09375 220.367188 96.039062 226.324219 109.410156 228.839844 C 121.699219 231.148438 134.253906 230.347656 146.777344 226.460938 C 157.679688 223.074219 167.761719 217.488281 176.597656 209.9375 C 178.207031 208.5625 181.601562 205.285156 183.101562 203.667969 C 192.3125 193.703125 198.613281 182.503906 202.015625 170.054688 C 203.019531 166.375 203.6875 162.902344 204.164062 158.871094 C 204.429688 156.617188 204.585938 149.660156 204.417969 147.605469 C 204.203125 145 203.78125 142.152344 203.546875 141.6875 C 203.429688 141.453125 203.0625 141.460938 202.957031 141.703125 C 202.914062 141.804688 202.796875 143.695312 202.699219 145.902344 C 202.507812 150.183594 202.328125 152.347656 201.921875 155.40625 C 199.960938 170.046875 194.28125 183.632812 185.339844 195.046875 C 172.550781 211.371094 154.027344 222.101562 134.085938 224.738281 C 129.898438 225.289062 127.007812 225.433594 122.1875 225.324219 C 118.378906 225.238281 117.140625 225.15625 114.402344 224.800781 C 97.851562 222.660156 82.78125 215.019531 71.679688 203.136719 C 64.667969 195.632812 59.484375 186.675781 56.382812 176.703125 C 55.128906 172.664062 54.132812 167.757812 53.730469 163.636719 C 53.667969 163 53.527344 161.574219 53.414062 160.46875 C 53.300781 159.363281 53.183594 157.804688 53.152344 157.003906 C 53.058594 154.671875 52.980469 153.242188 52.878906 151.917969 C 52.746094 150.183594 52.835938 147.023438 53.109375 143.597656 C 53.238281 142.003906 53.347656 140.449219 53.355469 140.144531 Z M 53.355469 140.144531 " fill-opacity="1" fill-rule="nonzero"/></g></g></g></g></g></g></svg>